<?xml version="1.0" encoding="iso-8859-1"?>
<!-- Generator: Adobe Illustrator 18.0.0, SVG Export Plug-In . SVG Version: 6.00 Build 0)  -->
<!DOCTYPE svg PUBLIC "-//W3C//DTD SVG 1.1//EN" "http://www.w3.org/Graphics/SVG/1.1/DTD/svg11.dtd">
<svg version="1.1" id="Capa_1" xmlns="http://www.w3.org/2000/svg" xmlns:xlink="http://www.w3.org/1999/xlink" x="0px" y="0px"
	 viewBox="0 0 125 125" style="enable-background:new 0 0 125 125;" xml:space="preserve">
<g>
	<g>
		<circle style="fill:#FA6A5D;" cx="62.5" cy="62.5" r="62.5"/>
	</g>
	<g>
		<g>
			<path style="fill:#C9C9C9;" d="M94.557,43.964l-52.586,0.359c-3.096,0.021-5.611,2.571-5.59,5.667l0.102,14.852
				c0.047,6.879,5.714,12.469,12.593,12.422l1.947-0.014c3.352-0.022,6.437-1.832,8.092-4.746l6.557-11.536
				c1.189-2.093,4.197-2.113,5.415-0.037l6.713,11.446c1.696,2.891,4.805,4.657,8.156,4.635l1.947-0.014
				c6.88-0.047,12.47-5.714,12.423-12.593l-0.102-14.853C100.203,46.458,97.653,43.943,94.557,43.964z"/>
		</g>
		<g>
			<path style="fill:#F8AD3B;" d="M50.138,91.445c-13.949,0.096-17.932-9.83-17.973-15.839c-0.096-13.921-0.314-45.878-0.314-45.878
				l-7.505,0.051l0.313,45.878c0.154,22.597,19.543,23.944,25.469,23.904l8.026-0.05c1.036-0.007,1.871-0.853,1.863-1.89
				l-0.029-4.368c-0.007-1.036-0.853-1.87-1.889-1.863L50.138,91.445z"/>
		</g>
		<g>
			<path style="fill:#00A69A;" d="M38.113,59.351c0.007,1.036-0.827,1.882-1.863,1.889l-11.882,0.081
				c-1.036,0.007-1.882-0.827-1.89-1.863l-0.042-6.254c-0.008-1.035,0.827-1.882,1.863-1.889l11.882-0.081
				c1.036-0.007,1.882,0.827,1.889,1.863L38.113,59.351z"/>
		</g>
		<g>
			<g>
				<polygon style="fill:#FFFFFF;" points="46.764,76.594 44.083,76.613 54.258,45.69 56.941,45.672 				"/>
			</g>
			<g>
				<polygon style="fill:#FFFFFF;" points="49.488,76.576 48.147,76.585 58.324,45.663 59.665,45.654 				"/>
			</g>
		</g>
		<g>
			<g>
				<polygon style="fill:#FFFFFF;" points="84.182,76.339 81.501,76.357 91.676,45.435 94.359,45.416 				"/>
			</g>
			<g>
				<polygon style="fill:#FFFFFF;" points="86.907,76.321 85.565,76.33 95.742,45.407 97.083,45.398 				"/>
			</g>
		</g>
		<g>
			<g>
				<path style="fill:#00A69A;" d="M87.919,79.189l-1.948,0.013c-4.12,0.028-7.974-2.162-10.059-5.716L69.199,62.04
					c-0.238-0.406-0.613-0.465-0.815-0.463c-0.202,0.001-0.576,0.064-0.81,0.475l-6.556,11.536
					c-2.036,3.582-5.859,5.825-9.981,5.854l-1.947,0.013c-8.103,0.056-14.741-6.492-14.796-14.596l-0.101-14.853
					c-0.029-4.31,3.453-7.841,7.763-7.87l52.587-0.359c4.31-0.029,7.841,3.453,7.87,7.764l0.102,14.853
					C102.57,72.496,96.022,79.133,87.919,79.189z M68.353,57.199c1.922-0.013,3.649,0.969,4.622,2.627l6.713,11.445
					c1.296,2.209,3.691,3.571,6.253,3.554l1.947-0.014c5.689-0.039,10.287-4.7,10.248-10.389L98.035,49.57
					c-0.013-1.896-1.566-3.43-3.463-3.416l-52.586,0.358c-1.896,0.014-3.429,1.567-3.416,3.464l0.102,14.853
					c0.039,5.689,4.699,10.286,10.389,10.248l1.948-0.014c2.56-0.018,4.938-1.411,6.203-3.639l6.557-11.536
					C64.717,58.217,66.432,57.212,68.353,57.199z"/>
			</g>
		</g>
	</g>
</g>
<g>
</g>
<g>
</g>
<g>
</g>
<g>
</g>
<g>
</g>
<g>
</g>
<g>
</g>
<g>
</g>
<g>
</g>
<g>
</g>
<g>
</g>
<g>
</g>
<g>
</g>
<g>
</g>
<g>
</g>
</svg>
